<svg width="1200" height="700" viewBox="0 0 1200 700" fill="none" xmlns="http://www.w3.org/2000/svg">
  <defs>
    <linearGradient id="bg" x1="0" y1="0" x2="1200" y2="700" gradientUnits="userSpaceOnUse">
      <stop stop-color="#0F172A" />
      <stop offset="1" stop-color="#1E293B" />
    </linearGradient>
    <linearGradient id="card" x1="0" y1="0" x2="1" y2="1">
      <stop stop-color="#22D3EE" />
      <stop offset="1" stop-color="#3B82F6" />
    </linearGradient>
  </defs>

  <rect width="1200" height="700" fill="url(#bg)" />

  <rect x="90" y="90" width="1020" height="520" rx="24" fill="#0B1220" stroke="#334155" stroke-width="2" />
  <rect x="120" y="130" width="280" height="40" rx="10" fill="#111827" />
  <rect x="420" y="130" width="420" height="40" rx="10" fill="#111827" />
  <rect x="860" y="130" width="220" height="40" rx="10" fill="#111827" />

  <rect x="120" y="210" width="300" height="360" rx="16" fill="#111827" />
  <rect x="450" y="210" width="630" height="110" rx="16" fill="url(#card)" opacity="0.95" />

  <rect x="450" y="345" width="190" height="225" rx="16" fill="#111827" />
  <rect x="655" y="345" width="190" height="225" rx="16" fill="#111827" />
  <rect x="860" y="345" width="220" height="225" rx="16" fill="#111827" />

  <circle cx="1030" cy="265" r="24" fill="#0F172A" stroke="#E2E8F0" stroke-width="3" />
  <path d="M1022 265H1038" stroke="#E2E8F0" stroke-width="3" stroke-linecap="round" />
  <path d="M1030 257V273" stroke="#E2E8F0" stroke-width="3" stroke-linecap="round" />

  <text x="140" y="155" fill="#22D3EE" font-family="Arial, sans-serif" font-size="28" font-weight="700">
    NovaCart
  </text>
  <text x="470" y="275" fill="#ECFEFF" font-family="Arial, sans-serif" font-size="40" font-weight="700">
    Ecommerce React App
  </text>
  <text x="470" y="305" fill="#CFFAFE" font-family="Arial, sans-serif" font-size="18">
    Search • Filter • Cart • Checkout • API
  </text>
</svg>
