<svg width="1280" height="720" viewBox="0 0 1280 720" fill="none" xmlns="http://www.w3.org/2000/svg">
  <rect width="1280" height="720" fill="#0B1324"/>
  <rect x="50" y="40" width="1180" height="640" rx="20" fill="#101A33" stroke="#204274"/>
  <rect x="90" y="90" width="1100" height="64" rx="14" fill="#122142" stroke="#2A4E81"/>
  <rect x="120" y="112" width="210" height="20" rx="10" fill="#F43F5E"/>
  <rect x="930" y="112" width="110" height="20" rx="10" fill="#1E3358"/>
  <rect x="1060" y="112" width="110" height="20" rx="10" fill="#1E3358"/>
  <rect x="90" y="184" width="530" height="456" rx="16" fill="#122142" stroke="#2A4E81"/>
  <rect x="650" y="184" width="540" height="220" rx="16" fill="#122142" stroke="#2A4E81"/>
  <rect x="650" y="420" width="540" height="220" rx="16" fill="#122142" stroke="#2A4E81"/>
  <path d="M140 542 C220 420, 360 620, 510 360" stroke="#FB7185" stroke-width="8" stroke-linecap="round"/>
  <circle cx="510" cy="360" r="10" fill="#FB7185"/>
  <rect x="690" y="228" width="460" height="22" rx="11" fill="#233E67"/>
  <rect x="690" y="266" width="420" height="22" rx="11" fill="#233E67"/>
  <rect x="690" y="304" width="380" height="22" rx="11" fill="#233E67"/>
  <rect x="690" y="456" width="140" height="120" rx="10" fill="#1A3357"/>
  <rect x="846" y="486" width="140" height="90" rx="10" fill="#22C55E"/>
  <rect x="1002" y="446" width="140" height="130" rx="10" fill="#F59E0B"/>
  <text x="92" y="666" fill="#A5B4FC" font-family="Arial, sans-serif" font-size="34" font-weight="700">Heart Disease Prediction - ML Model Dashboard</text>
</svg>
