<svg width="1280" height="720" viewBox="0 0 1280 720" fill="none" xmlns="http://www.w3.org/2000/svg">
  <rect width="1280" height="720" fill="#0B1220"/>
  <rect x="56" y="40" width="1168" height="640" rx="20" fill="#0E1A2E" stroke="#1B3A62"/>
  <rect x="96" y="84" width="1088" height="68" rx="14" fill="#101F36" stroke="#1E446D"/>
  <rect x="126" y="108" width="190" height="22" rx="11" fill="#38BDF8"/>
  <rect x="854" y="108" width="90" height="20" rx="10" fill="#1E2F4A"/>
  <rect x="964" y="108" width="90" height="20" rx="10" fill="#1E2F4A"/>
  <rect x="1074" y="108" width="90" height="20" rx="10" fill="#1E2F4A"/>
  <rect x="96" y="184" width="680" height="360" rx="18" fill="#101F36" stroke="#1E446D"/>
  <rect x="816" y="184" width="368" height="360" rx="18" fill="#101F36" stroke="#1E446D"/>
  <rect x="126" y="228" width="450" height="30" rx="15" fill="#22D3EE"/>
  <rect x="126" y="280" width="610" height="16" rx="8" fill="#274261"/>
  <rect x="126" y="314" width="560" height="16" rx="8" fill="#274261"/>
  <rect x="126" y="348" width="610" height="16" rx="8" fill="#274261"/>
  <rect x="126" y="416" width="176" height="52" rx="26" fill="#22D3EE"/>
  <rect x="322" y="416" width="176" height="52" rx="26" fill="#0E1A2E" stroke="#2A567D"/>
  <rect x="848" y="230" width="304" height="160" rx="12" fill="#14314D"/>
  <rect x="848" y="410" width="304" height="110" rx="12" fill="#14314D"/>
  <text x="96" y="622" fill="#93C5FD" font-family="Arial, sans-serif" font-size="34" font-weight="700">Portfolio Website - Next.js + Tailwind CSS</text>
</svg>
